<?xml version="1.0" encoding="UTF-8" standalone="no"?>
<svg width="310px" height="57px" viewBox="0 0 310 57" version="1.1" xmlns="http://www.w3.org/2000/svg" xmlns:xlink="http://www.w3.org/1999/xlink" xmlns:sketch="http://www.bohemiancoding.com/sketch/ns">
    <!-- Generator: Sketch 3.3.2 (12043) - http://www.bohemiancoding.com/sketch -->
    <title>logo-blue</title>
    <desc>Created with Sketch.</desc>
    <defs></defs>
    <g id="Page-1" stroke="none" stroke-width="1" fill="none" fill-rule="evenodd" sketch:type="MSPage">
        <g id="logo-blue" sketch:type="MSLayerGroup">
            <g id="Page-1" sketch:type="MSShapeGroup">
                <g id="Artboard-1-Copy">
                    <g id="Group-2-Copy">
                        <path d="M49.432,47.768 C55.768,47.768 59.608,45.016 61.656,42.136 L56.344,37.208 C54.872,39.256 52.632,40.536 49.816,40.536 C44.888,40.536 41.432,36.888 41.432,31.512 C41.432,26.136 44.888,22.552 49.816,22.552 C52.632,22.552 54.872,23.704 56.344,25.88 L61.656,20.888 C59.608,18.072 55.768,15.32 49.432,15.32 C39.896,15.32 33.048,22.04 33.048,31.512 C33.048,41.048 39.896,47.768 49.432,47.768 L49.432,47.768 L49.432,47.768 Z M92.956,47 L92.956,27.032 C92.956,18.136 86.492,15.32 79.452,15.32 C74.588,15.32 69.724,16.856 65.948,20.184 L69.02,25.624 C71.644,23.192 74.716,21.976 78.044,21.976 C82.14,21.976 84.828,24.024 84.828,27.16 L84.828,31.32 C82.78,28.888 79.132,27.544 75.036,27.544 C70.108,27.544 64.284,30.296 64.284,37.528 C64.284,44.44 70.108,47.768 75.036,47.768 C79.068,47.768 82.716,46.296 84.828,43.8 L84.828,47 L92.956,47 L92.956,47 Z M78.3,42.264 C75.1,42.264 72.476,40.6 72.476,37.72 C72.476,34.712 75.1,33.048 78.3,33.048 C80.924,33.048 83.484,33.944 84.828,35.736 L84.828,39.576 C83.484,41.368 80.924,42.264 78.3,42.264 L78.3,42.264 L78.3,42.264 Z M108.448,47 L108.448,4.312 L100.32,4.312 L100.32,47 L108.448,47 L108.448,47 Z M123.94,47 L123.94,4.312 L115.812,4.312 L115.812,47 L123.94,47 L123.94,47 Z M142.44,47.768 C151.016,47.768 155.816,43.48 155.816,37.848 C155.816,25.368 137.512,29.208 137.512,24.6 C137.512,22.872 139.432,21.528 142.376,21.528 C146.152,21.528 149.672,23.128 151.528,25.112 L154.792,19.544 C151.72,17.112 147.56,15.32 142.312,15.32 C134.184,15.32 129.64,19.864 129.64,25.048 C129.64,37.208 148.008,33.048 148.008,38.168 C148.008,40.088 146.344,41.496 142.824,41.496 C138.984,41.496 134.376,39.384 132.136,37.272 L128.616,42.968 C131.88,45.976 137.064,47.768 142.44,47.768 L142.44,47.768 L142.44,47.768 Z M171.5,47.768 C174.892,47.768 177.068,46.872 178.284,45.784 L176.556,39.64 C176.108,40.088 174.956,40.536 173.74,40.536 C171.948,40.536 170.924,39.064 170.924,37.144 L170.924,23.192 L177.196,23.192 L177.196,16.088 L170.924,16.088 L170.924,7.64 L162.732,7.64 L162.732,16.088 L157.612,16.088 L157.612,23.192 L162.732,23.192 L162.732,39.32 C162.732,44.824 165.804,47.768 171.5,47.768 L171.5,47.768 L171.5,47.768 Z M208.752,47 L208.752,27.032 C208.752,18.136 202.288,15.32 195.248,15.32 C190.384,15.32 185.52,16.856 181.744,20.184 L184.816,25.624 C187.44,23.192 190.512,21.976 193.84,21.976 C197.936,21.976 200.624,24.024 200.624,27.16 L200.624,31.32 C198.576,28.888 194.928,27.544 190.832,27.544 C185.904,27.544 180.08,30.296 180.08,37.528 C180.08,44.44 185.904,47.768 190.832,47.768 C194.864,47.768 198.512,46.296 200.624,43.8 L200.624,47 L208.752,47 L208.752,47 Z M194.096,42.264 C190.896,42.264 188.272,40.6 188.272,37.72 C188.272,34.712 190.896,33.048 194.096,33.048 C196.72,33.048 199.28,33.944 200.624,35.736 L200.624,39.576 C199.28,41.368 196.72,42.264 194.096,42.264 L194.096,42.264 L194.096,42.264 Z M230.516,47.768 C236.852,47.768 240.692,45.016 242.74,42.136 L237.428,37.208 C235.956,39.256 233.716,40.536 230.9,40.536 C225.972,40.536 222.516,36.888 222.516,31.512 C222.516,26.136 225.972,22.552 230.9,22.552 C233.716,22.552 235.956,23.704 237.428,25.88 L242.74,20.888 C240.692,18.072 236.852,15.32 230.516,15.32 C220.98,15.32 214.132,22.04 214.132,31.512 C214.132,41.048 220.98,47.768 230.516,47.768 L230.516,47.768 L230.516,47.768 Z M277.56,47 L264.952,30.104 L277.176,16.088 L267.192,16.088 L255.48,29.848 L255.48,4.312 L247.352,4.312 L247.352,47 L255.48,47 L255.48,39.064 L259.192,35.096 L267.384,47 L277.56,47 L277.56,47 Z" id="callstack" fill="#FFFFFF"></path>
                        <path d="M18.728,53.472 C18.728,51.936 17.768,50.72 15.592,50.72 L14.44,50.72 C12.264,50.72 10.472,48.8 10.472,45.92 L10.472,34.144 C10.472,31.456 9.64,29.28 7.528,28.384 C9.64,27.488 10.472,25.312 10.472,22.624 L10.472,10.784 C10.472,7.904 12.264,6.048 14.44,6.048 L15.592,6.048 C17.768,6.048 18.728,4.832 18.728,3.296 C18.728,1.824 17.768,0.608 15.592,0.608 L14.44,0.608 C9.32,0.608 4.52,4.512 4.52,10.848 L4.52,21.792 C4.52,23.328 4.136,24.8 2.984,25.504 C1.512,26.4 0.808,26.912 0.808,28.384 C0.808,29.856 1.512,30.368 2.984,31.264 C4.136,31.968 4.52,33.44 4.52,34.976 L4.52,45.984 C4.52,52.32 9.32,56.16 14.44,56.16 L15.592,56.16 C17.768,56.16 18.728,54.944 18.728,53.472 L18.728,53.472 L18.728,53.472 Z" id="{-copy" fill="#FFFFFF"></path>
                        <path d="M309.8,28.384 C309.8,26.912 309.096,26.4 307.624,25.504 C306.472,24.8 306.088,23.328 306.088,21.792 L306.088,10.848 C306.088,4.512 301.288,0.608 296.168,0.608 L295.016,0.608 C292.84,0.608 291.88,1.824 291.88,3.296 C291.88,4.832 292.84,6.048 295.016,6.048 L296.168,6.048 C298.344,6.048 300.136,7.904 300.136,10.784 L300.136,22.624 C300.136,25.312 300.968,27.488 303.08,28.384 C300.968,29.28 300.136,31.456 300.136,34.144 L300.136,45.92 C300.136,48.8 298.344,50.72 296.168,50.72 L295.016,50.72 C292.84,50.72 291.88,51.936 291.88,53.472 C291.88,54.944 292.84,56.16 295.016,56.16 L296.168,56.16 C301.288,56.16 306.088,52.32 306.088,45.984 L306.088,34.976 C306.088,33.44 306.472,31.968 307.624,31.264 C309.096,30.368 309.8,29.856 309.8,28.384 L309.8,28.384 L309.8,28.384 Z" id="}-copy" fill="#FFFFFF"></path>
                    </g>
                </g>
            </g>
        </g>
    </g>
</svg>
